<svg width="12" height="7" viewBox="0 0 12 7" fill="none" xmlns="http://www.w3.org/2000/svg">
<path d="M7.60064 5.67189L11.4256 1.53676C11.5809 1.36796 11.668 1.13963 11.668 0.90162C11.668 0.663615 11.5809 0.43528 11.4256 0.266485C11.3482 0.182045 11.256 0.115023 11.1545 0.0692857C11.0529 0.0235482 10.944 -3.42123e-08 10.834 -3.94108e-08C10.724 -4.46094e-08 10.615 0.0235481 10.5135 0.0692857C10.4119 0.115023 10.3198 0.182045 10.2423 0.266485L6.42564 4.41063C6.34817 4.49507 6.256 4.56209 6.15445 4.60783C6.05291 4.65357 5.94398 4.67711 5.83397 4.67711C5.72396 4.67711 5.61504 4.65357 5.51349 4.60783C5.41194 4.56209 5.31978 4.49507 5.24231 4.41063L1.42564 0.266484C1.26983 0.0968415 1.05806 0.00106249 0.836922 0.000217716C0.615785 -0.000627053 0.403395 0.0935324 0.246474 0.261981C0.0895548 0.430429 0.000958416 0.659368 0.000177347 0.898435C-0.000604676 1.1375 0.0864934 1.36711 0.242309 1.53676L4.06731 5.67189C4.53606 6.17802 5.17147 6.46231 5.83397 6.46231C6.49648 6.46231 7.13189 6.17802 7.60064 5.67189Z" fill="#8F8F91"/>
</svg>
