<svg width="7" height="12" viewBox="0 0 7 12" fill="none" xmlns="http://www.w3.org/2000/svg">
<path d="M5.83341 4.23334L2.00841 0.408343C1.85228 0.253134 1.64107 0.166016 1.42091 0.166016C1.20076 0.166016 0.989548 0.253134 0.833413 0.408343C0.755306 0.485812 0.693311 0.577979 0.651003 0.679529C0.608696 0.781078 0.586914 0.89 0.586914 1.00001C0.586914 1.11002 0.608696 1.21894 0.651003 1.32049C0.693311 1.42204 0.755306 1.51421 0.833413 1.59168L4.66675 5.40834C4.74485 5.48581 4.80685 5.57798 4.84916 5.67953C4.89146 5.78108 4.91324 5.89 4.91324 6.00001C4.91324 6.11002 4.89146 6.21894 4.84916 6.32049C4.80685 6.42204 4.74485 6.51421 4.66675 6.59168L0.833413 10.4083C0.676493 10.5642 0.587897 10.7759 0.587116 10.9971C0.586335 11.2182 0.673432 11.4306 0.829247 11.5875C0.985061 11.7444 1.19683 11.833 1.41797 11.8338C1.6391 11.8346 1.85149 11.7475 2.00841 11.5917L5.83341 7.76668C6.30158 7.29792 6.56455 6.66251 6.56455 6.00001C6.56455 5.33751 6.30158 4.70209 5.83341 4.23334Z" fill="black"/>
</svg>
