<svg width="16" height="12" viewBox="0 0 16 12" fill="none" xmlns="http://www.w3.org/2000/svg">
<path d="M13.5043 0.391865C13.7797 0.139747 14.1488 -0.000888113 14.5328 4.22057e-06C14.9168 0.000896554 15.2852 0.143246 15.5593 0.396641C15.8333 0.650036 15.9914 0.994382 15.9997 1.35611C16.0079 1.71784 15.8657 2.06827 15.6034 2.33254L7.77714 11.5557C7.64258 11.6926 7.48007 11.8025 7.29934 11.8788C7.11861 11.9552 6.92339 11.9963 6.72538 11.9998C6.52737 12.0032 6.33066 11.969 6.14703 11.8991C5.96341 11.8292 5.79665 11.7251 5.65677 11.593L0.469625 6.70138C0.324805 6.57458 0.2086 6.42157 0.127952 6.2515C0.0473053 6.08142 0.00387166 5.89778 0.000247231 5.71153C-0.0033772 5.52529 0.032882 5.34026 0.106858 5.16752C0.180834 4.99478 0.291008 4.83786 0.430797 4.70614C0.570586 4.57442 0.737121 4.47061 0.92045 4.4009C1.10378 4.3312 1.30014 4.29703 1.4978 4.30045C1.69546 4.30386 1.89036 4.34479 2.07085 4.42078C2.25134 4.49677 2.41373 4.60627 2.5483 4.74272L6.65546 8.61008L13.4675 0.433822C13.4797 0.419614 13.4926 0.406052 13.5064 0.393197L13.5043 0.391865Z" fill="#2CB7A4"/>
</svg>
