<svg width="9" height="7" viewBox="0 0 9 7" fill="none" xmlns="http://www.w3.org/2000/svg">
<path d="M7.59615 0.247757C7.75107 0.10155 7.95871 0.0199928 8.1747 0.0205103C8.39069 0.0210277 8.59791 0.103578 8.75208 0.250526C8.90626 0.397474 8.99516 0.597165 8.99981 0.806938C9.00445 1.01671 8.92446 1.21993 8.77693 1.37318L4.37464 6.72185C4.29895 6.80125 4.20754 6.86499 4.10588 6.90924C4.00422 6.95348 3.89441 6.97733 3.78303 6.97935C3.67165 6.98137 3.56099 6.96152 3.45771 6.92099C3.35442 6.88046 3.26062 6.82008 3.18193 6.74347L0.264164 3.90674C0.182703 3.83321 0.117337 3.74447 0.0719733 3.64585C0.0266092 3.54722 0.00217781 3.44072 0.000139068 3.33271C-0.00189967 3.22471 0.0184961 3.11741 0.0601075 3.01723C0.101719 2.91706 0.163692 2.82606 0.242323 2.74967C0.320955 2.67328 0.414631 2.61308 0.517753 2.57266C0.620876 2.53224 0.731329 2.51242 0.842512 2.5144C0.953694 2.51638 1.06333 2.54012 1.16485 2.58419C1.26638 2.62825 1.35772 2.69175 1.43342 2.77089L3.7437 5.01363L7.57548 0.272088C7.58231 0.263848 7.58961 0.255983 7.59734 0.248529L7.59615 0.247757Z" fill="#60C7B8"/>
</svg>
