<svg width="12" height="9" viewBox="0 0 12 9" fill="none" xmlns="http://www.w3.org/2000/svg">
<path d="M10.0151 0.271224C10.2 0.0979955 10.4447 0.00294038 10.6981 0.00592771C10.9514 0.00891504 11.1938 0.109714 11.3746 0.287254C11.5554 0.464793 11.6605 0.705333 11.6681 0.958593C11.6756 1.21185 11.585 1.45823 11.4151 1.64622L6.1911 8.17922C6.10126 8.27596 5.99283 8.35358 5.87231 8.40745C5.75178 8.46133 5.62163 8.49035 5.48963 8.49277C5.35763 8.4952 5.2265 8.47099 5.10408 8.42158C4.98165 8.37217 4.87044 8.29859 4.77711 8.20522L1.31511 4.73722C1.21292 4.64894 1.13004 4.54053 1.07165 4.41877C1.01326 4.297 0.980606 4.16451 0.975736 4.02955C0.970867 3.8946 0.993884 3.76009 1.04335 3.63444C1.09281 3.50878 1.16766 3.39468 1.26322 3.29926C1.35878 3.20384 1.47299 3.12916 1.59871 3.07988C1.72444 3.03059 1.85898 3.00777 1.99392 3.01283C2.12887 3.0179 2.26132 3.05074 2.383 3.10931C2.50468 3.16788 2.61297 3.25091 2.7011 3.35322L5.4431 6.09322L9.9901 0.299224C9.99823 0.289082 10.0069 0.2794 10.0161 0.270224L10.0151 0.271224Z" fill="#BFBFBF"/>
</svg>
