<svg width="23" height="19" viewBox="0 0 23 19" fill="none" xmlns="http://www.w3.org/2000/svg">
<g clip-path="url(#clip0_1698_13279)">
<path d="M1.36997 0.259989L21.63 17C21.8204 17.1248 21.9544 17.3194 22.003 17.5419C22.0516 17.7644 22.011 17.9971 21.89 18.19C21.7289 18.3494 21.5115 18.4388 21.285 18.4388C21.0584 18.4388 20.841 18.3494 20.68 18.19L0.419969 1.41999C0.2295 1.29514 0.095582 1.10058 0.0469699 0.878081C-0.0016422 0.655588 0.0389278 0.422903 0.159969 0.229989C0.32609 0.0769324 0.545228 -0.0055142 0.771041 8.44651e-05C0.996853 0.00568313 1.21164 0.0988881 1.36997 0.259989Z" fill="black"/>
<path d="M0.409971 16.94L20.69 0.280012C20.8527 0.120003 21.0718 0.0303345 21.3 0.0303345C21.5282 0.0303345 21.7473 0.120003 21.91 0.280012C22.0275 0.474799 22.0651 0.707541 22.0147 0.92941C21.9644 1.15128 21.8301 1.34503 21.64 1.47001L1.35997 18.1C1.19725 18.26 0.978181 18.3497 0.749971 18.3497C0.521761 18.3497 0.302688 18.26 0.139971 18.1C0.0314074 17.908 -0.00109016 17.6822 0.0489138 17.4674C0.0989178 17.2526 0.227777 17.0643 0.409971 16.94Z" fill="black"/>
</g>
<defs>
<clipPath id="clip0_1698_13279">
<rect width="22.05" height="18.38" fill="white"/>
</clipPath>
</defs>
</svg>
