<svg width="13" height="13" viewBox="0 0 13 13" fill="none" xmlns="http://www.w3.org/2000/svg">
<path d="M7.51276 6.26007L12.5365 1.33956C12.6107 1.26735 12.6696 1.18101 12.7099 1.08563C12.7502 0.990251 12.7709 0.887767 12.7709 0.784233C12.7709 0.680699 12.7502 0.578214 12.7099 0.482834C12.6696 0.387454 12.6107 0.301112 12.5365 0.22891C12.3846 0.0820767 12.1816 0 11.9703 0C11.759 0 11.556 0.0820767 11.4041 0.22891L6.38673 5.16029L1.36846 0.22891C1.21655 0.0820767 1.01354 0 0.80227 0C0.590999 0 0.387991 0.0820767 0.236085 0.22891C0.161882 0.301112 0.102901 0.387454 0.0626274 0.482834C0.0223538 0.578214 0.00160404 0.680699 0.00160404 0.784233C0.00160404 0.887767 0.0223538 0.990251 0.0626274 1.08563C0.102901 1.18101 0.161882 1.26735 0.236085 1.33956L5.2616 6.26007L0.236085 11.1797C0.16152 11.252 0.102129 11.3385 0.0613873 11.434C0.0208794 11.5292 0 11.6316 0 11.735C0 11.8384 0.0208794 11.9408 0.0613873 12.036C0.102129 12.1315 0.16152 12.218 0.236085 12.2903C0.310641 12.3638 0.398907 12.4219 0.49587 12.4614C0.692617 12.5414 0.912829 12.5414 1.10958 12.4614C1.20654 12.4219 1.2948 12.3638 1.36936 12.2903L6.38673 7.36257L11.405 12.2903C11.4796 12.3638 11.5678 12.4219 11.6648 12.4614C11.8615 12.5414 12.0817 12.5414 12.2785 12.4614C12.3755 12.4219 12.4637 12.3638 12.5383 12.2903C12.6128 12.218 12.6722 12.1315 12.713 12.036C12.7535 11.9408 12.7744 11.8384 12.7744 11.735C12.7744 11.6316 12.7535 11.5292 12.713 11.434C12.6722 11.3385 12.6128 11.252 12.5383 11.1797L7.51276 6.26007Z" fill="white"/>
</svg>
