<svg width="100" height="100" viewBox="0 0 100 100" fill="none" xmlns="http://www.w3.org/2000/svg">
<g clip-path="url(#clip0_5825_17578)">
<path d="M52.2728 21.7882C59.3761 27.8104 54.6581 49.8261 51.7777 60.7316C51.6803 61.0934 51.4522 61.4151 51.1298 61.645C50.8075 61.875 50.4097 62 50 62C49.5903 62 49.1925 61.875 48.8702 61.645C48.5478 61.4151 48.3197 61.0934 48.2223 60.7316C45.3419 49.8193 40.6239 27.8104 47.7272 21.7882C48.3526 21.2806 49.1617 21 50 21C50.8383 21 51.6474 21.2806 52.2728 21.7882Z" fill="#F68282"/>
<path d="M50 79C52.7614 79 55 76.7614 55 74C55 71.2386 52.7614 69 50 69C47.2386 69 45 71.2386 45 74C45 76.7614 47.2386 79 50 79Z" fill="#F68282"/>
</g>
<rect x="1.5" y="1.5" width="97" height="97" rx="48.5" stroke="#DCDCDC" stroke-width="3"/>
<defs>
<clipPath id="clip0_5825_17578">
<rect width="100" height="100" rx="50" fill="white"/>
</clipPath>
</defs>
</svg>
