<svg width="151" height="51" viewBox="0 0 151 51" fill="none" xmlns="http://www.w3.org/2000/svg">
<path d="M41.8957 50.0276H8.4132C3.82544 50.0276 0.123047 46.3252 0.123047 41.7374V8.33503C0.123047 3.74723 3.82544 0.0447998 8.4132 0.0447998H41.8152C46.403 0.0447998 50.1054 3.74723 50.1054 8.33503V41.7374C50.1859 46.3252 46.4835 50.0276 41.8957 50.0276Z" fill="white"/>
<path d="M11.712 34.2519C13.8047 34.8958 15.8973 35.5397 17.99 36.2641C20.1631 36.9885 22.4168 37.6324 24.5899 38.3567C26.6021 39.0007 28.3728 38.6787 29.9825 37.3909C30.9484 36.6665 31.8337 35.8616 32.7996 35.0568C33.202 34.6543 33.6849 34.3324 34.0874 33.9299C34.4093 33.608 34.3288 33.2055 33.9264 33.0446C33.8459 33.0446 33.8459 33.0446 33.7654 32.9641C32.4776 32.5616 31.1094 32.2397 29.8216 31.8372C27.1655 31.0324 24.429 30.2275 21.7729 29.4226C21.29 29.2616 20.8875 29.1812 20.4046 29.0202C20.1631 28.9397 20.0827 28.7787 20.1631 28.5373C20.2436 28.2958 20.4046 28.2153 20.6461 28.2958C20.7266 28.2958 20.807 28.3763 20.8875 28.3763C23.1412 29.0202 25.3948 29.7446 27.6484 30.3885C29.5801 30.9519 31.5118 31.5153 33.4435 32.0787C34.4093 32.4007 35.3752 32.6421 36.341 32.9641C37.8703 33.3665 39.8019 32.0787 39.3995 30.0665C39.1581 29.1007 38.5946 28.4568 37.6288 28.1348C36.2605 27.7324 34.8923 27.2495 33.524 26.847C31.5118 26.2031 29.4191 25.5592 27.407 24.9153C26.7631 24.7543 26.1997 24.3519 25.7972 23.869C24.5899 22.3397 23.1412 21.1324 21.4509 20.1665C19.9217 19.3617 18.2315 18.7982 16.5412 18.5568C15.4144 18.3958 14.2876 18.3958 13.1608 18.7178C12.1949 19.0397 11.2291 19.4422 10.3437 19.9251C9.29742 20.4885 8.25109 20.569 7.20476 20.247C6.56086 20.0056 5.83648 19.8446 5.19259 19.6031C4.62918 19.4422 4.14626 19.5226 3.82431 19.9251C3.58285 21.2129 3.50236 22.5007 3.42188 23.7885C3.42188 23.9495 3.42188 24.1104 3.42188 24.3519C3.42188 27.0885 3.9048 29.6641 4.79015 32.0787C4.95113 32.1592 5.03161 32.1592 5.19259 32.2397C7.36573 32.8836 9.53888 33.608 11.712 34.2519Z" fill="#CBCBCB"/>
<path d="M34.3321 23.9494C33.6882 24.5128 33.0443 24.9957 32.4004 25.5591C32.4809 25.6396 32.5614 25.6396 32.6419 25.6396C32.9638 25.7201 33.2053 25.8006 33.5272 25.8811C34.1711 26.1225 34.8955 26.2835 35.5394 26.525C35.7004 26.6055 35.7808 26.525 35.8613 26.4445C36.9077 25.5591 37.954 24.6738 39.0003 23.7884C40.3686 22.6616 41.8174 21.4543 43.1856 20.3274C43.8295 19.764 44.5539 19.5226 45.3588 19.5226C45.5198 19.5226 45.6002 19.5226 45.7612 19.4421C46.4856 18.9591 46.8075 18.2348 46.6466 17.3494C46.3246 15.9811 44.6344 15.2567 43.4271 16.303C41.8174 17.6713 40.2076 18.9591 38.5979 20.2469C37.2296 21.6152 35.7808 22.8226 34.3321 23.9494Z" fill="#CBCBCB"/>
<path d="M40.8528 17.5908C41.3358 17.1883 41.7382 16.8664 42.2211 16.464C42.6235 16.142 42.6235 15.9005 42.3016 15.4981C42.0601 15.2566 41.8187 15.0152 41.4967 14.8542C40.7723 14.5322 40.048 14.6127 39.4041 15.1762C38.3577 16.0615 37.3114 16.9469 36.2651 17.7518C34.0114 19.603 31.8383 21.4542 29.5847 23.2249C29.1822 23.5469 28.7798 23.8688 28.2969 24.2713C28.4578 24.3517 28.4578 24.3517 28.5383 24.3517C29.4237 24.5932 30.309 24.9152 31.1944 25.1566C31.2749 25.1566 31.4359 25.1566 31.5164 25.0761C32.8846 23.9493 34.2529 22.8225 35.6212 21.6956C37.4724 20.4078 39.1626 19.0396 40.8528 17.5908Z" fill="#CBCBCB"/>
<path d="M43.9888 20.8101C43.6668 21.0516 43.3449 21.3735 43.0229 21.615C41.3327 22.9833 39.723 24.3516 38.0328 25.7199C37.5498 26.1223 37.0669 26.5247 36.584 26.9272C36.9864 27.0077 37.3084 27.1686 37.7108 27.2491C38.5157 27.4906 39.1596 27.8125 39.723 28.5369C40.0449 28.9394 40.2864 28.9394 40.6888 28.6174C42.4595 27.1686 44.2302 25.7199 46.001 24.2711C46.2424 24.1101 46.4839 23.8687 46.6448 23.6272C47.2887 22.9028 47.2887 21.776 46.6448 20.9711C45.9205 20.3272 44.7937 20.2467 43.9888 20.8101Z" fill="#CBCBCB"/>
<path d="M34.9724 17.9126C35.2943 17.6712 35.2943 17.4297 34.9724 17.1077C34.5699 16.6248 34.0065 16.4638 33.3626 16.6248C32.8797 16.7053 32.4773 17.0273 32.1553 17.2687C30.3846 18.7175 28.6139 20.2468 26.8432 21.6955C26.5213 22.0175 26.1188 22.259 25.7969 22.5809C25.9578 22.7419 26.0383 22.8224 26.1993 22.9833C26.5213 23.3053 26.7627 23.7077 27.2456 23.9492C27.4871 24.0297 27.5676 24.0297 27.809 23.9492C29.4188 22.6614 30.948 21.2931 32.5578 20.0053C33.2822 19.2809 34.1675 18.5565 34.9724 17.9126Z" fill="#CBCBCB"/>
<path d="M91.6745 21.5095C92.8573 24.1117 95.5383 25.9253 98.6136 25.9253H110.678C111.782 25.9253 112.65 25.0579 112.65 23.8751C112.65 22.6923 111.782 21.8249 110.678 21.8249H98.6136C97.9828 21.8249 97.4308 21.6672 96.9577 21.4306C95.7749 20.7998 94.9864 19.617 94.9864 18.1976C94.9864 18.1187 94.9864 18.0399 94.9864 17.961H111.23C111.861 16.9359 112.334 15.7531 112.492 14.4915C112.492 14.3338 112.492 14.0972 112.492 13.9395C112.492 13.8606 112.492 13.7818 112.492 13.7029C112.492 12.5201 112.255 11.4162 111.782 10.4699C110.599 7.86772 107.918 6.05408 104.843 6.05408H93.8036C92.6996 6.05408 91.7534 6.92147 91.7534 8.10428C91.7534 9.28709 92.6208 10.1545 93.8036 10.1545H104.843C105.474 10.1545 106.026 10.3122 106.499 10.5488C107.682 11.1796 108.47 12.3624 108.47 13.7818C108.47 13.8606 108.47 13.9395 108.47 14.0183H102.32H92.2265C91.5168 15.0434 91.1226 16.2263 90.9648 17.4879C90.9648 17.6456 90.9648 17.8822 90.9648 18.0399C90.9648 18.1187 90.9648 18.1976 90.9648 18.2765C90.9648 19.3804 91.2014 20.4844 91.6745 21.5095Z" fill="#CBCBCB"/>
<path d="M122.195 25.9257C123.299 25.9257 124.245 25.0583 124.245 23.8755V13.7821C124.245 11.7319 125.901 10.1549 127.872 10.1549C129.923 10.1549 131.5 11.8108 131.5 13.7821V23.8755C131.5 24.9794 132.367 25.9257 133.55 25.9257C134.733 25.9257 135.6 25.0583 135.6 23.8755V13.7821C135.6 9.52403 132.13 6.1333 127.951 6.1333C123.772 6.1333 120.302 9.60288 120.302 13.7821V23.8755C120.145 25.0583 121.091 25.9257 122.195 25.9257Z" fill="#CBCBCB"/>
<path d="M148.214 27.7393H129.841V21.9041C129.841 20.8002 128.973 19.8539 127.791 19.8539C126.687 19.8539 125.74 20.7213 125.74 21.9041V27.7393H77.7975V21.1944C81.0305 20.327 83.475 17.3306 83.475 13.7821C83.475 9.52403 80.0054 6.1333 75.8262 6.1333C71.5681 6.1333 68.1774 9.60288 68.1774 13.7821C68.1774 17.3306 70.543 20.327 73.8548 21.1944V27.7393H59.267C58.163 27.7393 57.2168 28.6067 57.2168 29.7895C57.2168 30.9723 58.0842 31.8397 59.267 31.8397H91.8334C91.2814 32.9437 90.8872 34.1265 90.8872 35.467C90.8872 39.7251 94.3567 43.1159 98.5359 43.1159H110.6C111.704 43.1159 112.651 42.2485 112.651 41.0657C112.651 39.8828 111.783 39.0154 110.6 39.0154H98.5359C96.4857 39.0154 94.9087 37.3595 94.9087 35.3882C94.9087 33.4168 96.4858 31.8397 98.3782 31.7609H121.009C120.457 32.8648 120.063 34.0476 120.063 35.3882C120.063 39.6463 123.532 43.037 127.712 43.037H133.389C134.493 43.037 135.439 42.1696 135.439 40.9868C135.439 39.804 134.572 38.9366 133.389 38.9366H127.712C125.661 38.9366 124.084 37.2807 124.084 35.3093C124.084 33.338 125.661 31.7609 127.554 31.682H148.056C149.16 31.682 150.106 30.8146 150.106 29.6318C150.264 28.6856 149.317 27.7393 148.214 27.7393ZM72.2778 13.7821C72.2778 11.7319 73.9337 10.1549 75.905 10.1549C77.9552 10.1549 79.5323 11.8108 79.5323 13.7821C79.5323 15.7535 77.8764 17.4094 75.905 17.4094C73.9337 17.4883 72.2778 15.8324 72.2778 13.7821Z" fill="#CBCBCB"/>
</svg>
