<svg width="82" height="32" viewBox="0 0 82 32" fill="none" xmlns="http://www.w3.org/2000/svg">
<path d="M1.15498 16.5171C1.81838 15.6275 3.13011 17.3464 4.5323 18.5224C6.20587 19.9246 7.90961 21.176 7.90961 21.176C7.90961 21.176 -0.0512006 11.7225 1.80331 9.86802C2.76825 8.90308 4.50214 11.3004 6.41696 13.1247C8.49762 15.1149 10.6084 16.5171 10.6084 16.5171C10.6084 16.5171 2.18024 5.79715 4.84892 4.19896C6.10033 3.4451 7.74376 6.02331 9.62842 8.28491C11.7694 10.8631 14.0762 13.2604 14.0762 13.2604C14.0762 13.2604 6.95974 1.92229 10.1712 0.881958C11.1512 0.550257 13.0057 3.41494 15.2221 6.52086C16.3529 8.11906 17.6948 9.6871 19.0819 10.9988C21.841 13.758 16.2172 18.1304 17.7702 19.5778C18.3732 20.1357 20.7404 19.5326 23.0472 18.0248C25.1128 16.6679 26.7864 14.8586 27.8418 13.577C27.9624 13.4564 28.0679 13.3358 28.1735 13.185C28.2489 13.0946 28.3092 12.989 28.3695 12.8986C28.7917 12.3407 29.0329 11.9788 29.0329 11.9638C30.6311 9.73233 31.2191 8.99354 32.1539 9.31016C33.4807 9.7474 33.3601 13.1096 33.0736 15.0998C32.3951 19.8492 31.0382 23.9954 27.9473 27.2521C24.3137 31.0818 18.0265 31.323 15.5086 30.7953C5.55755 28.7146 -0.0813552 18.1907 1.15498 16.5171Z" fill="#898989" fill-opacity="0.5"/>
<path d="M50.2468 16.442H45.8593V14.1201C48.0455 13.6225 49.689 11.6625 49.689 9.3104C49.689 6.59649 47.4726 4.38013 44.7587 4.38013C42.0448 4.38013 39.8284 6.59649 39.8284 9.3104C39.8284 11.6474 41.4718 13.6225 43.6581 14.1201V16.442H40.3712H39.2706H38.1699V18.6282H39.2706H40.3712H50.2318C50.8348 18.6282 51.3324 18.1306 51.3324 17.5275C51.3475 16.9244 50.8499 16.442 50.2468 16.442ZM42.0297 9.3104C42.0297 7.80267 43.251 6.56633 44.7738 6.56633C46.2815 6.56633 47.5178 7.78759 47.5178 9.3104C47.5178 10.8332 46.2966 12.0545 44.7738 12.0545C43.251 12.0545 42.0297 10.8332 42.0297 9.3104Z" fill="#444444" fill-opacity="0.5"/>
<path d="M57.4978 14.2257C57.528 14.2257 57.5732 14.2257 57.6033 14.2257H64.4484C65.0515 14.2257 65.5491 13.7281 65.5491 13.125C65.5491 12.5219 65.0515 12.0244 64.4484 12.0244H57.6033C57.151 12.0244 56.7741 11.6474 56.7741 11.1951C56.7741 10.7428 57.151 10.3659 57.6033 10.3659H62.5185C62.5638 10.3659 62.5939 10.3659 62.6241 10.3659C64.2374 10.3056 65.534 8.97877 65.534 7.35042C65.534 5.72207 64.2374 4.39527 62.6241 4.33496C62.5939 4.33496 62.5487 4.33496 62.5185 4.33496H57.8747H56.7741H55.6735V6.52117H56.7741H57.8747H62.5185C62.9709 6.52117 63.3478 6.8981 63.3478 7.35042C63.3478 7.80274 62.9709 8.17967 62.5185 8.17967H57.6033C57.5581 8.17967 57.528 8.17967 57.4978 8.17967C55.8845 8.23998 54.5879 9.56678 54.5879 11.1951C54.5879 12.8235 55.8845 14.1654 57.4978 14.2257Z" fill="#444444" fill-opacity="0.5"/>
<path d="M65.58 16.427H54.6338C54.6188 16.427 54.6037 16.427 54.5886 16.427H53.5332V18.6132H55.7194H65.58C66.183 18.6132 66.6806 18.1157 66.6806 17.5126C66.6806 16.9246 66.183 16.427 65.58 16.427Z" fill="#444444" fill-opacity="0.5"/>
<path d="M64.4797 25.2021H58.8408C57.7251 25.2021 56.8053 24.2824 56.8053 23.1666V23.0159V21.9152V20.8146H54.6191V21.9152V23.0159V23.1666C54.6191 25.5036 56.5189 27.4034 58.8408 27.4034H64.4797C65.0828 27.4034 65.5803 26.9058 65.5803 26.3027C65.5803 25.6996 65.0828 25.2021 64.4797 25.2021Z" fill="#444444" fill-opacity="0.5"/>
<path d="M80.9148 16.4422H76.5273V14.2409C76.5273 13.6378 76.0298 13.1403 75.4267 13.1403C74.8236 13.1403 74.326 13.6378 74.326 14.2409V16.4271H71.0392H69.9385H68.8379V18.6133H69.9385H71.0392H80.8997C81.5028 18.6133 82.0004 18.1158 82.0004 17.5127C82.0154 16.9247 81.5179 16.4422 80.9148 16.4422Z" fill="#444444" fill-opacity="0.5"/>
<path d="M79.8137 25.2022H74.1748C73.059 25.2022 72.1393 24.2825 72.1393 23.1668V23.016V21.9153V20.8147H69.9531V21.9153V23.016V23.1668C69.9531 25.5037 71.8529 27.4035 74.1748 27.4035H79.8137C80.4168 27.4035 80.9143 26.9059 80.9143 26.3028C80.9143 25.6997 80.4168 25.2022 79.8137 25.2022Z" fill="#444444" fill-opacity="0.5"/>
<path d="M71.0552 12.5373C72.8494 12.5373 74.4476 11.6779 75.4427 10.3511C76.4378 11.6779 78.036 12.5373 79.8302 12.5373C80.4333 12.5373 80.9308 12.0398 80.9308 11.4367C80.9308 10.8336 80.4333 10.336 79.8302 10.336C78.0058 10.336 76.5282 8.87353 76.5282 7.07933V6.53655V4.35034H74.342V5.45098V7.09441C74.342 8.88861 72.8644 10.3511 71.0401 10.3511C70.437 10.3511 69.9395 10.8487 69.9395 11.4517C69.9545 12.0398 70.437 12.5373 71.0552 12.5373Z" fill="#444444" fill-opacity="0.5"/>
</svg>
