<svg width="18" height="18" viewBox="0 0 18 18" fill="none" xmlns="http://www.w3.org/2000/svg">
<path d="M12.0093 16.4034H15.4356C15.7211 16.4032 15.9947 16.2896 16.1965 16.0877C16.3982 15.8859 16.5116 15.6121 16.5117 15.3267V7.90655C16.5116 7.72808 16.4672 7.55241 16.3825 7.39534C16.2977 7.23827 16.1753 7.10472 16.0262 7.00667L9.88478 1.5526C9.65218 1.39989 9.37973 1.3191 9.10147 1.32033C8.82322 1.32155 8.5515 1.40474 8.32024 1.55949L1.96399 6.88529C1.81699 6.98375 1.6965 7.11692 1.61319 7.27301C1.52988 7.4291 1.48631 7.60332 1.48633 7.78025V15.3257C1.48629 15.4672 1.5141 15.6072 1.56819 15.7379C1.62228 15.8685 1.70159 15.9873 1.80157 16.0873C1.90156 16.1873 2.02027 16.2667 2.15092 16.3208C2.28158 16.3749 2.42161 16.4028 2.56304 16.4028H6.1186V11.8909C6.11856 11.676 6.16739 11.4639 6.2614 11.2707C6.35541 11.0774 6.49213 10.9081 6.66122 10.7755C7.53518 10.0892 9.37103 9.12039 11.4713 10.7932C11.6388 10.9261 11.7741 11.0951 11.8672 11.2875C11.9604 11.4799 12.009 11.6909 12.0093 11.9047V16.4034Z" stroke="#8D8D8D" stroke-width="1.53846" stroke-linecap="round" stroke-linejoin="round"/>
</svg>
