<svg width="71" height="71" viewBox="0 0 71 71" fill="none" xmlns="http://www.w3.org/2000/svg">
<g clip-path="url(#clip0_1987_12061)">
<path d="M72.8677 -3.11377H-1.86914V71.6231H72.8677V-3.11377Z" fill="#6DA6C4"/>
<path d="M46.7098 53.6119L67.5614 59.3666C69.953 60.1887 71.8214 61.9824 72.8677 64.2992V71.6234H-1.86914V64.2992C-0.897562 61.9824 1.0456 60.1887 3.43718 59.3666L24.2888 53.6119V42.4761H46.7098V53.6119Z" fill="#D4B08C"/>
<mask id="mask0_1987_12061" style="mask-type:luminance" maskUnits="userSpaceOnUse" x="-2" y="42" width="75" height="30">
<path d="M46.7079 53.6114L67.5594 59.3661C69.951 60.1882 71.8194 61.9819 72.8658 64.2987V71.623H-1.87109V64.2987C-0.899515 61.9819 1.04364 60.1882 3.43522 59.3661L24.2868 53.6114V42.4756H46.7079V53.6114Z" fill="white"/>
</mask>
<g mask="url(#mask0_1987_12061)">
<path d="M35.6473 56.6758H30.2662L26.6789 52.939H-1.87061V71.6232H35.6473H73.1652V52.939H44.6157L41.0283 56.6758H35.6473Z" fill="#70A619"/>
</g>
<path d="M35.4991 52.1916C34.3781 52.1916 32.8833 51.9674 31.9118 51.519C30.716 50.9958 26.5307 48.0811 25.1107 46.8106C23.2423 45.0916 22.2707 42.999 21.9718 39.3369C21.6728 35.6748 20.5518 22.5958 20.5518 19.6064C20.5518 15.3464 24.3633 8.76953 35.4244 8.76953C46.4854 8.76953 50.297 15.3464 50.297 19.6064C50.297 22.5958 49.176 35.6748 48.877 39.3369C48.5781 42.999 47.6812 45.0916 45.7381 46.8106C44.3181 48.0811 40.0581 50.9958 38.937 51.519C38.1149 51.9674 36.6202 52.1916 35.4991 52.1916Z" fill="#F2CEA5"/>
<mask id="mask1_1987_12061" style="mask-type:luminance" maskUnits="userSpaceOnUse" x="20" y="8" width="31" height="45">
<path d="M35.5016 52.1916C34.3805 52.1916 32.8858 51.9674 31.9142 51.519C30.7184 50.9958 26.5331 48.0811 25.1131 46.8106C23.2447 45.0916 22.2731 42.999 21.9742 39.3369C21.6753 35.6748 20.5542 22.5958 20.5542 19.6064C20.5542 15.3464 24.3658 8.76953 35.4268 8.76953C46.4879 8.76953 50.2995 15.3464 50.2995 19.6064C50.2995 22.5958 49.1784 35.6748 48.8795 39.3369C48.5805 42.999 47.6837 45.0916 45.7405 46.8106C44.3205 48.0811 40.0605 50.9958 38.9395 51.519C38.1174 51.9674 36.6226 52.1916 35.5016 52.1916Z" fill="white"/>
</mask>
<g mask="url(#mask1_1987_12061)">
<path d="M35.5011 52.1916C34.38 52.1916 32.8853 51.9674 31.9137 51.519C30.7179 50.9958 26.5327 48.0811 25.1127 46.8106C23.2442 45.0916 22.2727 42.999 21.9737 39.3369C21.6748 35.6748 20.5537 22.5958 20.5537 19.6064C20.5537 15.3464 24.3653 8.76953 35.4263 8.76953C46.4874 8.76953 50.299 15.3464 50.299 19.6064C50.299 22.5958 49.1779 35.6748 48.879 39.3369C48.58 42.999 47.6832 45.0916 45.74 46.8106C44.32 48.0811 40.06 50.9958 38.939 51.519C38.1169 51.9674 36.6221 52.1916 35.5011 52.1916Z" fill="#F2CEA5"/>
</g>
<mask id="mask2_1987_12061" style="mask-type:luminance" maskUnits="userSpaceOnUse" x="20" y="8" width="31" height="45">
<path d="M35.5016 52.1916C34.3805 52.1916 32.8858 51.9674 31.9142 51.519C30.7184 50.9958 26.5331 48.0811 25.1131 46.8106C23.2447 45.0916 22.2731 42.999 21.9742 39.3369C21.6753 35.6748 20.5542 22.5958 20.5542 19.6064C20.5542 15.3464 24.3658 8.76953 35.4268 8.76953C46.4879 8.76953 50.2995 15.3464 50.2995 19.6064C50.2995 22.5958 49.1784 35.6748 48.8795 39.3369C48.5805 42.999 47.6837 45.0916 45.7405 46.8106C44.3205 48.0811 40.0605 50.9958 38.9395 51.519C38.1174 51.9674 36.6226 52.1916 35.5016 52.1916Z" fill="white"/>
</mask>
<g mask="url(#mask2_1987_12061)">
<path d="M35.4261 41.7286C33.7819 41.6538 34.3798 40.2338 31.9134 40.2338C29.4471 40.2338 27.8777 41.5044 27.205 42.4759L21.2261 34.2549V54.4338H35.5008H49.7755V34.2549L43.7966 42.4759C43.0492 41.5791 41.5545 40.3086 39.0882 40.2338C36.6219 40.1591 37.0703 41.6538 35.4261 41.7286ZM35.4261 43.2233C33.6324 43.2233 34.305 42.4759 32.3619 42.4759C29.7461 42.4759 28.625 42.9991 28.625 44.3444C28.625 45.6896 29.5219 47.558 32.3619 47.7075C33.184 47.6328 33.6324 47.4086 33.8566 47.1096C33.8566 46.6612 34.1556 46.138 35.4261 46.2128C36.6966 46.138 36.9208 46.6612 36.9955 47.1096C37.2198 47.4086 37.6682 47.7075 38.4903 47.7075C41.3303 47.558 42.2271 45.6896 42.2271 44.3444C42.2271 42.9991 41.1061 42.4759 38.4903 42.4759C36.6219 42.4759 37.2198 43.2233 35.4261 43.2233Z" fill="white"/>
</g>
<mask id="mask3_1987_12061" style="mask-type:luminance" maskUnits="userSpaceOnUse" x="20" y="8" width="31" height="45">
<path d="M35.5016 52.1916C34.3805 52.1916 32.8858 51.9674 31.9142 51.519C30.7184 50.9958 26.5331 48.0811 25.1131 46.8106C23.2447 45.0916 22.2731 42.999 21.9742 39.3369C21.6753 35.6748 20.5542 22.5958 20.5542 19.6064C20.5542 15.3464 24.3658 8.76953 35.4268 8.76953C46.4879 8.76953 50.2995 15.3464 50.2995 19.6064C50.2995 22.5958 49.1784 35.6748 48.8795 39.3369C48.5805 42.999 47.6837 45.0916 45.7405 46.8106C44.3205 48.0811 40.0605 50.9958 38.9395 51.519C38.1174 51.9674 36.6226 52.1916 35.5016 52.1916Z" fill="white"/>
</mask>
<g mask="url(#mask3_1987_12061)">
<path d="M33.4089 29.1726C33.1847 29.3221 32.811 29.2473 32.6615 29.0231C32.1384 28.4252 31.0173 27.5284 28.85 27.5284C26.6826 27.5284 25.6363 28.4252 25.2626 28.9484C25.1131 29.1726 24.8142 29.2473 24.5152 29.1726L24.291 29.0979C23.9173 28.9484 23.7679 28.4252 23.9921 28.1263C24.59 27.3042 25.9352 26.1084 28.7752 26.1084C31.4657 26.1084 33.0352 27.2295 33.7079 28.1263C33.9321 28.4252 33.8573 28.8737 33.4836 29.0979L33.4089 29.1726Z" fill="#CC9872"/>
</g>
<mask id="mask4_1987_12061" style="mask-type:luminance" maskUnits="userSpaceOnUse" x="20" y="8" width="31" height="45">
<path d="M35.5016 52.1916C34.3805 52.1916 32.8858 51.9674 31.9142 51.519C30.7184 50.9958 26.5331 48.0811 25.1131 46.8106C23.2447 45.0916 22.2731 42.999 21.9742 39.3369C21.6753 35.6748 20.5542 22.5958 20.5542 19.6064C20.5542 15.3464 24.3658 8.76953 35.4268 8.76953C46.4879 8.76953 50.2995 15.3464 50.2995 19.6064C50.2995 22.5958 49.1784 35.6748 48.8795 39.3369C48.5805 42.999 47.6837 45.0916 45.7405 46.8106C44.3205 48.0811 40.0605 50.9958 38.9395 51.519C38.1174 51.9674 36.6226 52.1916 35.5016 52.1916Z" fill="white"/>
</mask>
<g mask="url(#mask4_1987_12061)">
<path d="M36.9954 37.1695C36.6217 37.1695 36.248 36.8706 36.248 36.4221V30.4432C36.248 28.5748 38.1165 26.0337 42.227 25.959C44.8428 25.959 46.2628 27.0053 46.9354 27.8274C47.2344 28.2011 47.0849 28.799 46.6365 28.9485C46.3375 29.0232 46.0386 28.9485 45.8144 28.7242C45.3659 28.2758 44.3196 27.5285 42.227 27.4537C39.1628 27.4537 37.7428 29.2474 37.7428 30.4432V36.4969C37.7428 36.8706 37.4438 37.1695 36.9954 37.1695Z" fill="#BB8660"/>
</g>
<path d="M24.3628 52.4911L25.6333 50.3984L35.2744 54.8079L45.0649 51.1458L46.7091 52.79V57.6479C46.7091 57.6479 38.6375 65.57 35.4986 65.6448C32.3596 65.6448 24.3628 57.05 24.3628 57.05V52.4911Z" fill="#D4B08C"/>
<path d="M46.7101 53.6118C46.6354 55.4055 46.7101 55.4055 46.7101 56.8255C46.7101 67.3634 40.3575 71.5487 40.3575 71.5487H39.0122H35.7238H32.5101H31.1649C31.1649 71.5487 24.2891 66.5413 24.2891 57.5729C24.2891 56.0781 24.2891 54.2844 24.2891 53.6118C25.0364 54.3592 26.307 59.815 35.7985 59.815C45.2901 59.815 45.9627 54.3592 46.7101 53.6118Z" fill="white"/>
<path d="M29.5952 19.3076H41.5531C41.9268 19.3076 42.2257 19.6066 42.2257 19.9802V20.055C42.2257 20.4287 41.9268 20.7276 41.5531 20.7276H29.5952C29.2215 20.7276 28.9226 20.4287 28.9226 20.055V19.9802C28.8478 19.6066 29.1468 19.3076 29.5952 19.3076Z" fill="#E1BC90"/>
<path d="M32.5838 22.2969H38.488C38.9364 22.2969 39.2354 22.5958 39.2354 23.0442C39.2354 23.4927 38.9364 23.7916 38.488 23.7916H32.5838C32.1354 23.7916 31.8364 23.4927 31.8364 23.0442C31.8364 22.5958 32.1354 22.2969 32.5838 22.2969Z" fill="#E1BC90"/>
<path d="M44.916 11.2363C44.916 11.2363 47.5318 14.5247 47.9054 19.3826C48.0549 21.55 47.1581 23.1195 48.9518 27.3047C49.7739 29.1732 49.7739 29.5469 49.7739 30.2942C51.7918 23.9416 53.0623 14.9732 44.916 11.2363ZM26.0823 11.2363C26.0823 11.2363 23.4665 14.5247 23.0928 19.3826C22.9433 21.55 23.8402 23.1195 22.0465 27.3047C21.2244 29.1732 21.2244 29.5469 21.2244 30.2942C19.2065 23.9416 17.936 14.9732 26.0823 11.2363Z" fill="white"/>
<path d="M26.6069 31.2647C26.6069 31.2647 28.3259 29.3215 31.3901 30.9657" stroke="#4C4C4C" stroke-width="0.757895" stroke-miterlimit="10" stroke-linecap="round"/>
<path d="M44.4687 31.2647C44.4687 31.2647 42.7498 29.3215 39.6855 30.9657" stroke="#4C4C4C" stroke-width="0.757895" stroke-miterlimit="10" stroke-linecap="round"/>
<path d="M31.3145 44.1196C32.0618 45.2407 33.4071 45.8386 35.0513 45.988C36.845 46.0628 38.7134 45.3154 39.685 44.1196" fill="#A3705F"/>
</g>
<defs>
<clipPath id="clip0_1987_12061">
<rect width="71" height="71" fill="white"/>
</clipPath>
</defs>
</svg>
