<svg width="57" height="57" viewBox="0 0 57 57" fill="none" xmlns="http://www.w3.org/2000/svg">
<g clip-path="url(#clip0_1207_9719)">
<path d="M36.9296 0H20.0704C8.99155 0 0 8.99155 0 20.0704V36.9296C0 43.031 2.72958 48.4901 7.06479 52.1831C9.2324 42.3084 17.9831 34.9225 28.5 34.9225C39.0169 34.9225 47.7676 42.3084 49.9352 52.1831C54.2704 48.4901 57 43.031 57 36.9296V20.0704C57 8.99155 48.0085 0 36.9296 0ZM28.1789 31.2296C22.8803 31.2296 18.6254 26.9746 18.6254 21.6761C18.6254 16.3775 22.8803 12.1225 28.1789 12.1225C33.4775 12.1225 37.7324 16.3775 37.7324 21.6761C37.8127 26.8944 33.4775 31.2296 28.1789 31.2296Z" fill="#6DA6C4"/>
<path d="M34.926 28.3739C38.6569 24.6431 38.6569 18.5942 34.926 14.8634C31.1952 11.1325 25.1463 11.1325 21.4154 14.8634C17.6846 18.5942 17.6846 24.6431 21.4155 28.3739C25.1463 32.1048 31.1952 32.1048 34.926 28.3739Z" fill="#F1F1F1"/>
<path d="M28.4997 35.0029C17.9828 35.0029 9.23206 42.3888 7.06445 52.2635C10.5968 55.2339 15.0926 57.0804 20.0701 57.0804H36.9292C41.9067 57.0804 46.4828 55.2339 49.9349 52.2635C47.7673 42.3086 39.0166 35.0029 28.4997 35.0029Z" fill="#F1F1F1"/>
<g clip-path="url(#clip1_1207_9719)">
<path d="M58.499 -2.49976H-1.50098V57.5002H58.499V-2.49976Z" fill="#6DA6C4"/>
<path d="M37.499 43.0406L54.239 47.6606C56.159 48.3206 57.659 49.7606 58.499 51.6206V57.5006H-1.50098V51.6206C-0.720977 49.7606 0.839023 48.3206 2.75902 47.6606L19.499 43.0406V34.1006H37.499V43.0406Z" fill="#D4B08C"/>
<mask id="mask0_1207_9719" style="mask-type:luminance" maskUnits="userSpaceOnUse" x="-2" y="34" width="61" height="24">
<path d="M37.4961 43.0399L54.2361 47.6599C56.1561 48.3199 57.6561 49.7599 58.4961 51.6199V57.4999H-1.50391V51.6199C-0.723906 49.7599 0.836094 48.3199 2.75609 47.6599L19.4961 43.0399V34.0999H37.4961V43.0399Z" fill="white"/>
</mask>
<g mask="url(#mask0_1207_9719)">
<path d="M28.6171 45.4998H24.2971L21.4171 42.4998H-1.50293V57.4998H28.6171H58.7371V42.4998H35.8171L32.9371 45.4998H28.6171Z" fill="#70A619"/>
</g>
<path d="M28.499 41.9003C27.599 41.9003 26.399 41.7203 25.619 41.3603C24.659 40.9403 21.299 38.6003 20.159 37.5803C18.659 36.2003 17.879 34.5203 17.639 31.5803C17.399 28.6403 16.499 18.1403 16.499 15.7403C16.499 12.3203 19.559 7.04028 28.439 7.04028C37.319 7.04028 40.379 12.3203 40.379 15.7403C40.379 18.1403 39.479 28.6403 39.239 31.5803C38.999 34.5203 38.279 36.2003 36.719 37.5803C35.579 38.6003 32.159 40.9403 31.259 41.3603C30.599 41.7203 29.399 41.9003 28.499 41.9003Z" fill="#F2CEA5"/>
<mask id="mask1_1207_9719" style="mask-type:luminance" maskUnits="userSpaceOnUse" x="16" y="7" width="25" height="35">
<path d="M28.502 41.9C27.602 41.9 26.402 41.72 25.622 41.36C24.662 40.94 21.302 38.6 20.162 37.58C18.662 36.2 17.882 34.52 17.642 31.58C17.402 28.64 16.502 18.14 16.502 15.74C16.502 12.32 19.562 7.04004 28.442 7.04004C37.322 7.04004 40.382 12.32 40.382 15.74C40.382 18.14 39.482 28.64 39.242 31.58C39.002 34.52 38.282 36.2 36.722 37.58C35.582 38.6 32.162 40.94 31.262 41.36C30.602 41.72 29.402 41.9 28.502 41.9Z" fill="white"/>
</mask>
<g mask="url(#mask1_1207_9719)">
<path d="M28.502 41.9C27.602 41.9 26.402 41.72 25.622 41.36C24.662 40.94 21.302 38.6 20.162 37.58C18.662 36.2 17.882 34.52 17.642 31.58C17.402 28.64 16.502 18.14 16.502 15.74C16.502 12.32 19.562 7.04004 28.442 7.04004C37.322 7.04004 40.382 12.32 40.382 15.74C40.382 18.14 39.482 28.64 39.242 31.58C39.002 34.52 38.282 36.2 36.722 37.58C35.582 38.6 32.162 40.94 31.262 41.36C30.602 41.72 29.402 41.9 28.502 41.9Z" fill="#F2CEA5"/>
</g>
<mask id="mask2_1207_9719" style="mask-type:luminance" maskUnits="userSpaceOnUse" x="16" y="7" width="25" height="35">
<path d="M28.502 41.9C27.602 41.9 26.402 41.72 25.622 41.36C24.662 40.94 21.302 38.6 20.162 37.58C18.662 36.2 17.882 34.52 17.642 31.58C17.402 28.64 16.502 18.14 16.502 15.74C16.502 12.32 19.562 7.04004 28.442 7.04004C37.322 7.04004 40.382 12.32 40.382 15.74C40.382 18.14 39.482 28.64 39.242 31.58C39.002 34.52 38.282 36.2 36.722 37.58C35.582 38.6 32.162 40.94 31.262 41.36C30.602 41.72 29.402 41.9 28.502 41.9Z" fill="white"/>
</mask>
<g mask="url(#mask2_1207_9719)">
<path d="M28.441 33.5002C27.121 33.4402 27.601 32.3002 25.621 32.3002C23.641 32.3002 22.381 33.3202 21.841 34.1002L17.041 27.5002V43.7002H28.501H39.961V27.5002L35.161 34.1002C34.561 33.3802 33.361 32.3602 31.381 32.3002C29.401 32.2402 29.761 33.4402 28.441 33.5002ZM28.441 34.7002C27.001 34.7002 27.541 34.1002 25.981 34.1002C23.881 34.1002 22.981 34.5202 22.981 35.6002C22.981 36.6802 23.701 38.1802 25.981 38.3002C26.641 38.2402 27.001 38.0602 27.181 37.8202C27.181 37.4602 27.421 37.0402 28.441 37.1002C29.461 37.0402 29.641 37.4602 29.701 37.8202C29.881 38.0602 30.241 38.3002 30.901 38.3002C33.181 38.1802 33.901 36.6802 33.901 35.6002C33.901 34.5202 33.001 34.1002 30.901 34.1002C29.401 34.1002 29.881 34.7002 28.441 34.7002Z" fill="white"/>
</g>
<mask id="mask3_1207_9719" style="mask-type:luminance" maskUnits="userSpaceOnUse" x="16" y="7" width="25" height="35">
<path d="M28.502 41.9C27.602 41.9 26.402 41.72 25.622 41.36C24.662 40.94 21.302 38.6 20.162 37.58C18.662 36.2 17.882 34.52 17.642 31.58C17.402 28.64 16.502 18.14 16.502 15.74C16.502 12.32 19.562 7.04004 28.442 7.04004C37.322 7.04004 40.382 12.32 40.382 15.74C40.382 18.14 39.482 28.64 39.242 31.58C39.002 34.52 38.282 36.2 36.722 37.58C35.582 38.6 32.162 40.94 31.262 41.36C30.602 41.72 29.402 41.9 28.502 41.9Z" fill="white"/>
</mask>
<g mask="url(#mask3_1207_9719)">
<path d="M26.8213 23.4202C26.6413 23.5402 26.3413 23.4802 26.2213 23.3002C25.8013 22.8202 24.9013 22.1002 23.1613 22.1002C21.4213 22.1002 20.5813 22.8202 20.2813 23.2402C20.1613 23.4202 19.9213 23.4802 19.6813 23.4202L19.5013 23.3602C19.2013 23.2402 19.0813 22.8202 19.2613 22.5802C19.7413 21.9202 20.8213 20.9602 23.1013 20.9602C25.2613 20.9602 26.5213 21.8602 27.0613 22.5802C27.2413 22.8202 27.1813 23.1802 26.8813 23.3602L26.8213 23.4202Z" fill="#CC9872"/>
</g>
<mask id="mask4_1207_9719" style="mask-type:luminance" maskUnits="userSpaceOnUse" x="16" y="7" width="25" height="35">
<path d="M28.502 41.9C27.602 41.9 26.402 41.72 25.622 41.36C24.662 40.94 21.302 38.6 20.162 37.58C18.662 36.2 17.882 34.52 17.642 31.58C17.402 28.64 16.502 18.14 16.502 15.74C16.502 12.32 19.562 7.04004 28.442 7.04004C37.322 7.04004 40.382 12.32 40.382 15.74C40.382 18.14 39.482 28.64 39.242 31.58C39.002 34.52 38.282 36.2 36.722 37.58C35.582 38.6 32.162 40.94 31.262 41.36C30.602 41.72 29.402 41.9 28.502 41.9Z" fill="white"/>
</mask>
<g mask="url(#mask4_1207_9719)">
<path d="M29.7006 29.8401C29.4006 29.8401 29.1006 29.6001 29.1006 29.2401V24.4401C29.1006 22.9401 30.6006 20.9001 33.9006 20.8401C36.0006 20.8401 37.1406 21.6801 37.6806 22.3401C37.9206 22.6401 37.8006 23.1201 37.4406 23.2401C37.2006 23.3001 36.9606 23.2401 36.7806 23.0601C36.4206 22.7001 35.5806 22.1001 33.9006 22.0401C31.4406 22.0401 30.3006 23.4801 30.3006 24.4401V29.3001C30.3006 29.6001 30.0606 29.8401 29.7006 29.8401Z" fill="#BB8660"/>
</g>
<path d="M19.5586 42.1407L20.5786 40.4607L28.3186 44.0007L36.1786 41.0607L37.4986 42.3807V46.2807C37.4986 46.2807 31.0186 52.6407 28.4986 52.7007C25.9786 52.7007 19.5586 45.8007 19.5586 45.8007V42.1407Z" fill="#D4B08C"/>
<path d="M37.499 43.0408C37.439 44.4808 37.499 44.4808 37.499 45.6208C37.499 54.0808 32.399 57.4408 32.399 57.4408H31.319H28.679H26.099H25.019C25.019 57.4408 19.499 53.4208 19.499 46.2208C19.499 45.0208 19.499 43.5808 19.499 43.0408C20.099 43.6408 21.119 48.0208 28.739 48.0208C36.359 48.0208 36.899 43.6408 37.499 43.0408Z" fill="white"/>
<path d="M23.7591 15.5002H33.3591C33.6591 15.5002 33.8991 15.7402 33.8991 16.0402V16.1002C33.8991 16.4002 33.6591 16.6402 33.3591 16.6402H23.7591C23.4591 16.6402 23.2191 16.4002 23.2191 16.1002V16.0402C23.1591 15.7402 23.3991 15.5002 23.7591 15.5002Z" fill="#E1BC90"/>
<path d="M26.1576 17.9004H30.8976C31.2576 17.9004 31.4976 18.1404 31.4976 18.5004C31.4976 18.8604 31.2576 19.1004 30.8976 19.1004H26.1576C25.7976 19.1004 25.5576 18.8604 25.5576 18.5004C25.5576 18.1404 25.7976 17.9004 26.1576 17.9004Z" fill="#E1BC90"/>
<path d="M36.0588 9.02051C36.0588 9.02051 38.1588 11.6605 38.4588 15.5605C38.5788 17.3005 37.8588 18.5605 39.2988 21.9205C39.9588 23.4205 39.9588 23.7205 39.9588 24.3205C41.5788 19.2205 42.5988 12.0205 36.0588 9.02051ZM20.9388 9.02051C20.9388 9.02051 18.8388 11.6605 18.5388 15.5605C18.4188 17.3005 19.1388 18.5605 17.6988 21.9205C17.0388 23.4205 17.0388 23.7205 17.0388 24.3205C15.4188 19.2205 14.3988 12.0205 20.9388 9.02051Z" fill="white"/>
<path d="M21.3604 25.0999C21.3604 25.0999 22.7404 23.5399 25.2004 24.8599" stroke="#4C4C4C" stroke-width="0.9" stroke-miterlimit="10" stroke-linecap="round"/>
<path d="M35.7004 25.0999C35.7004 25.0999 34.3204 23.5399 31.8604 24.8599" stroke="#4C4C4C" stroke-width="0.9" stroke-miterlimit="10" stroke-linecap="round"/>
<path d="M25.1396 35.4199C25.7396 36.3199 26.8196 36.7999 28.1396 36.9199C29.5796 36.9799 31.0796 36.3799 31.8596 35.4199" fill="#A3705F"/>
</g>
</g>
<defs>
<clipPath id="clip0_1207_9719">
<rect width="57" height="57" fill="white"/>
</clipPath>
<clipPath id="clip1_1207_9719">
<rect width="57" height="57" rx="17.1" fill="white"/>
</clipPath>
</defs>
</svg>
