<svg width="10" height="13" viewBox="0 0 10 13" fill="none" xmlns="http://www.w3.org/2000/svg">
<path d="M8.53038 0.464C8.77571 0.464 8.99438 0.533333 9.18638 0.672C9.37838 0.8 9.47438 1.008 9.47438 1.296V10.64C9.47438 11.1413 9.37304 11.488 9.17038 11.68C8.97838 11.872 8.62638 11.968 8.11438 11.968C7.92238 11.968 7.75171 11.952 7.60238 11.92C7.45304 11.888 7.30904 11.8187 7.17038 11.712C7.03171 11.5947 6.88771 11.4293 6.73838 11.216C6.58904 11.0027 6.41304 10.7147 6.21038 10.352L3.18638 4.944C3.02638 4.656 2.88238 4.368 2.75438 4.08C2.62638 3.792 2.51438 3.46667 2.41838 3.104V11.2C2.41838 11.488 2.32238 11.7013 2.13038 11.84C1.93838 11.968 1.71971 12.032 1.47438 12.032C1.22904 12.032 1.01038 11.968 0.818375 11.84C0.626375 11.7013 0.530375 11.488 0.530375 11.2V1.856C0.530375 1.35467 0.626375 1.008 0.818375 0.815999C1.02104 0.624 1.37838 0.528 1.89038 0.528C2.08238 0.528 2.25304 0.544 2.40238 0.575999C2.55171 0.607999 2.69571 0.682666 2.83438 0.799999C2.97304 0.906666 3.11704 1.06667 3.26638 1.28C3.41571 1.49333 3.59171 1.78133 3.79438 2.144L6.81838 7.552C6.97838 7.84 7.12238 8.128 7.25038 8.416C7.37838 8.704 7.49038 9.02933 7.58638 9.392V1.296C7.58638 1.008 7.68238 0.8 7.87438 0.672C8.06638 0.533333 8.28504 0.464 8.53038 0.464Z" fill="white"/>
</svg>
