<svg width="6" height="12" viewBox="0 0 6 12" fill="none" xmlns="http://www.w3.org/2000/svg">
<path d="M0.73104 4.06733L4.55604 0.242327C4.71218 0.0871179 4.92339 0 5.14354 0C5.3637 0 5.57491 0.0871179 5.73104 0.242327C5.80915 0.319796 5.87114 0.411964 5.91345 0.513513C5.95576 0.615062 5.97754 0.723984 5.97754 0.833994C5.97754 0.944004 5.95576 1.05293 5.91345 1.15447C5.87114 1.25602 5.80915 1.34819 5.73104 1.42566L1.89771 5.24233C1.8196 5.3198 1.75761 5.41196 1.7153 5.51351C1.67299 5.61506 1.65121 5.72398 1.65121 5.83399C1.65121 5.944 1.67299 6.05293 1.7153 6.15447C1.75761 6.25602 1.8196 6.34819 1.89771 6.42566L5.73104 10.2423C5.88796 10.3981 5.97656 10.6099 5.97734 10.831C5.97812 11.0522 5.89102 11.2646 5.73521 11.4215C5.57939 11.5784 5.36762 11.667 5.14649 11.6678C4.92535 11.6686 4.71296 11.5815 4.55604 11.4257L0.73104 7.60066C0.262872 7.13191 -9.39369e-05 6.4965 -9.39369e-05 5.83399C-9.39369e-05 5.17149 0.262872 4.53608 0.73104 4.06733Z" fill="#BFBFBF"/>
</svg>
