<svg width="6" height="12" viewBox="0 0 6 12" fill="none" xmlns="http://www.w3.org/2000/svg">
<path d="M5.26896 4.06733L1.44396 0.242327C1.28782 0.0871179 1.07661 0 0.856459 0C0.636305 0 0.425095 0.0871179 0.26896 0.242327C0.190852 0.319796 0.128857 0.411964 0.0865502 0.513513C0.044243 0.615062 0.0224609 0.723984 0.0224609 0.833994C0.0224609 0.944004 0.044243 1.05293 0.0865502 1.15447C0.128857 1.25602 0.190852 1.34819 0.26896 1.42566L4.10229 5.24233C4.1804 5.3198 4.24239 5.41196 4.2847 5.51351C4.32701 5.61506 4.34879 5.72398 4.34879 5.83399C4.34879 5.944 4.32701 6.05293 4.2847 6.15447C4.24239 6.25602 4.1804 6.34819 4.10229 6.42566L0.26896 10.2423C0.11204 10.3981 0.0234442 10.6099 0.0226628 10.831C0.0218814 11.0522 0.108979 11.2646 0.264794 11.4215C0.420608 11.5784 0.632377 11.667 0.853513 11.6678C1.07465 11.6686 1.28704 11.5815 1.44396 11.4257L5.26896 7.60066C5.73713 7.13191 6.00009 6.4965 6.00009 5.83399C6.00009 5.17149 5.73713 4.53608 5.26896 4.06733Z" fill="#BFBFBF"/>
</svg>
