<svg width="71" height="71" viewBox="0 0 71 71" fill="none" xmlns="http://www.w3.org/2000/svg">
<g clip-path="url(#clip0_965_10028)">
<rect width="71" height="71" fill="#EAEAEA"/>
<path d="M43.5042 35.3431C48.1514 30.6959 48.1514 23.1613 43.5042 18.5141C38.857 13.8669 31.3224 13.8669 26.6752 18.5141C22.028 23.1613 22.028 30.6959 26.6752 35.3431C31.3224 39.9903 38.857 39.9903 43.5042 35.3431Z" fill="#DADADA"/>
<path d="M35.4998 43.6C22.3998 43.6 11.4998 52.8 8.7998 65.1C13.1998 68.8 18.7998 71.1 24.9998 71.1H45.9998C52.1998 71.1 57.8998 68.8 62.1998 65.1C59.4998 52.7 48.5998 43.6 35.4998 43.6Z" fill="#DADADA"/>
<path d="M35 90C49.9117 90 62 79.7025 62 67C62 54.2974 49.9117 44 35 44C20.0883 44 8 54.2974 8 67C8 79.7025 20.0883 90 35 90Z" fill="#DADADA"/>
</g>
<defs>
<clipPath id="clip0_965_10028">
<rect width="71" height="71" fill="white"/>
</clipPath>
</defs>
</svg>
