<svg width="19" height="19" viewBox="0 0 19 19" fill="none" xmlns="http://www.w3.org/2000/svg">
<path d="M18.768 17.674L14.0425 12.9485C15.3303 11.3736 15.9634 9.36391 15.811 7.33524C15.6586 5.30657 14.7322 3.41409 13.2236 2.04925C11.715 0.684411 9.7395 -0.0483702 7.70575 0.00247997C5.672 0.0533302 3.73559 0.883921 2.29706 2.32245C0.85853 3.76098 0.0279395 5.69739 -0.0229107 7.73114C-0.0737608 9.76489 0.65902 11.7404 2.02386 13.249C3.3887 14.7576 5.28118 15.684 7.30985 15.8364C9.33852 15.9888 11.3482 15.3557 12.9231 14.0679L17.6486 18.7934C17.7979 18.9376 17.9979 19.0174 18.2054 19.0156C18.413 19.0138 18.6116 18.9305 18.7583 18.7837C18.9051 18.637 18.9884 18.4384 18.9902 18.2308C18.992 18.0233 18.9122 17.8233 18.768 17.674ZM7.91662 14.2753C6.664 14.2753 5.43952 13.9039 4.398 13.208C3.35649 12.5121 2.54473 11.5229 2.06538 10.3657C1.58602 9.2084 1.4606 7.93498 1.70498 6.70643C1.94935 5.47789 2.55254 4.3494 3.43827 3.46366C4.32401 2.57793 5.4525 1.97474 6.68104 1.73037C7.90959 1.48599 9.18301 1.61141 10.3403 2.09077C11.4975 2.57012 12.4867 3.38188 13.1826 4.4234C13.8785 5.46491 14.25 6.68939 14.25 7.94201C14.2481 9.62113 13.5802 11.2309 12.3929 12.4183C11.2056 13.6056 9.59574 14.2735 7.91662 14.2753Z" fill="#8F8F91"/>
</svg>
