<svg width="12" height="7" viewBox="0 0 12 7" fill="none" xmlns="http://www.w3.org/2000/svg">
<path d="M7.60064 6.15846L11.4256 2.02333C11.5809 1.85453 11.668 1.6262 11.668 1.38819C11.668 1.15019 11.5809 0.921852 11.4256 0.753057C11.3482 0.668617 11.256 0.601596 11.1545 0.555858C11.0529 0.51012 10.944 0.486572 10.834 0.486572C10.724 0.486572 10.615 0.51012 10.5135 0.555858C10.4119 0.601595 10.3198 0.668617 10.2423 0.753057L6.42564 4.8972C6.34817 4.98164 6.256 5.04866 6.15445 5.0944C6.05291 5.14014 5.94398 5.16369 5.83397 5.16369C5.72396 5.16369 5.61504 5.14014 5.51349 5.0944C5.41194 5.04866 5.31978 4.98164 5.24231 4.8972L1.42564 0.753057C1.26983 0.583414 1.05806 0.487635 0.836922 0.48679C0.615785 0.485945 0.403395 0.580105 0.246474 0.748553C0.0895548 0.917001 0.000958416 1.14594 0.000177347 1.38501C-0.000604676 1.62407 0.0864934 1.85368 0.242309 2.02333L4.06731 6.15846C4.53606 6.66459 5.17147 6.94888 5.83397 6.94888C6.49648 6.94888 7.13189 6.66459 7.60064 6.15846Z" fill="#2CB7A4"/>
</svg>
