<svg width="22" height="20" viewBox="0 0 22 20" fill="none" xmlns="http://www.w3.org/2000/svg">
<path d="M0.285156 0.171032C0.300492 6.61933 0.285156 13.0727 0.285156 19.5159C2.7337 19.5311 5.18735 19.526 7.63078 19.5159C7.66656 16.3195 7.58477 13.1181 7.67168 9.92163C8.47422 11.0258 9.21032 12.1853 10.0282 13.2794C11.3982 15.3767 12.9521 17.3631 14.2659 19.4958C16.7297 19.5613 19.1987 19.4958 21.6626 19.5311C21.6882 19.2286 21.7137 18.9261 21.7137 18.6236C21.6779 12.4677 21.7444 6.31683 21.6779 0.160949C19.2396 0.140782 16.8013 0.160949 14.363 0.150866C14.3425 3.36745 14.3834 6.58404 14.3425 9.79559C12.0934 6.61933 9.95153 3.34729 7.63589 0.211366C5.19246 0.100449 2.7337 0.176074 0.285156 0.171032Z" fill="white"/>
</svg>
