<svg width="23" height="24" viewBox="0 0 23 24" fill="none" xmlns="http://www.w3.org/2000/svg">
<path d="M17.1277 0C16.3356 0.0365529 15.5609 0.211746 14.8526 0.514547C14.1442 0.817348 13.5175 1.2412 13.0119 1.7594C12.4474 2.25579 12.0162 2.84982 11.748 3.50075C11.4797 4.15168 11.3808 4.8441 11.4579 5.53049C12.3164 5.55236 13.1676 5.3909 13.9331 5.06096C14.6987 4.73102 15.3542 4.24319 15.8391 3.64234C16.3409 3.14482 16.7147 2.56401 16.9366 1.93705C17.1584 1.3101 17.2235 0.650799 17.1277 0.00130037V0ZM23 17.6044C22.9156 17.4601 18.8842 15.7527 19.26 12.4706C19.3002 11.601 19.5961 10.7538 20.121 10.0059C20.6458 9.25806 21.3829 8.63329 22.2652 8.18845C21.7176 7.4834 20.9798 6.89909 20.1128 6.4839C19.2458 6.06871 18.2746 5.8346 17.2796 5.80096C16.5335 5.72276 15.7763 5.7822 15.0598 5.97521C14.1609 6.18327 12.1344 6.85947 11.5761 6.88547C11.0177 6.91148 9.3471 6.10005 7.55689 5.88809C6.45004 5.7949 5.33446 5.96512 4.33542 6.37963C3.49159 6.70732 2.73231 7.17291 2.10108 7.74972C1.46984 8.32654 0.979046 9.00325 0.656804 9.74109C-0.176709 11.9623 -0.217801 14.3427 0.538684 16.5837C1.03583 18.0704 1.7956 19.4847 2.79218 20.7787C3.55144 21.876 4.54748 22.8426 5.72832 23.6278C6.22729 23.854 6.78062 23.9806 7.34609 23.9979C7.91157 24.0153 8.47425 23.9229 8.99121 23.7279C9.9571 23.2952 11.0258 23.0529 12.1176 23.0192C13.2238 23.0998 14.2981 23.3753 15.2715 23.828C16.2346 24.0905 17.2792 24.0342 18.1954 23.6707C19.1526 23.3391 20.5394 22.0816 22.1563 19.5329C22.5423 18.929 22.8243 18.2813 22.9939 17.6096L23 17.6044Z" fill="black"/>
</svg>
