<svg width="135" height="43" viewBox="0 0 135 43" fill="none" xmlns="http://www.w3.org/2000/svg">
<path d="M35.8939 42.4862H7.12345C3.18135 42.4862 0 39.339 0 35.4394V7.04682C0 3.14712 3.18135 0 7.12345 0H35.8247C39.7668 0 42.9482 3.14712 42.9482 7.04682V35.4394C43.0173 39.339 39.836 42.4862 35.8939 42.4862Z" fill="white"/>
<path d="M9.95939 29.0765C11.7575 29.6238 13.5557 30.1711 15.3538 30.7868C17.2212 31.4026 19.1576 31.9499 21.0249 32.5657C22.7539 33.113 24.2754 32.8393 25.6586 31.7447C26.4886 31.1289 27.2493 30.4448 28.0792 29.7606C28.425 29.4185 28.84 29.1449 29.1858 28.8028C29.4624 28.5291 29.3933 28.187 29.0475 28.0502C28.9783 28.0502 28.9783 28.0502 28.9091 27.9818C27.8026 27.6397 26.6269 27.3661 25.5203 27.024C23.2381 26.3398 20.8866 25.6557 18.6044 24.9715C18.1894 24.8347 17.8436 24.7663 17.4286 24.6294C17.2212 24.561 17.152 24.4242 17.2212 24.2189C17.2903 24.0137 17.4286 23.9453 17.6361 24.0137C17.7053 24.0137 17.7744 24.0821 17.8436 24.0821C19.7801 24.6294 21.7165 25.2452 23.653 25.7925C25.3128 26.2714 26.9727 26.7503 28.6325 27.2292C29.4624 27.5029 30.2923 27.7081 31.1223 27.9818C32.4363 28.3239 34.0961 27.2292 33.7503 25.5188C33.5428 24.6978 33.0587 24.1505 32.2288 23.8769C31.0531 23.5348 29.8774 23.1243 28.7017 22.7822C26.9727 22.2349 25.1745 21.6876 23.4455 21.1402C22.8923 21.0034 22.4081 20.6613 22.0623 20.2508C21.0249 18.9509 19.7801 17.9247 18.3277 17.1037C17.0137 16.4195 15.5613 15.9406 14.109 15.7354C13.1407 15.5986 12.1725 15.5986 11.2043 15.8722C10.3743 16.1459 9.54443 16.488 8.78367 16.8985C7.8846 17.3774 6.98552 17.4458 6.08644 17.1721C5.53317 16.9669 4.91073 16.83 4.35745 16.6248C3.87333 16.488 3.45837 16.5564 3.18174 16.8985C2.97426 17.9931 2.9051 19.0878 2.83594 20.1824C2.83594 20.3192 2.83594 20.4561 2.83594 20.6613C2.83594 22.9875 3.2509 25.1768 4.01165 27.2292C4.14997 27.2976 4.21913 27.2976 4.35745 27.3661C6.22476 27.9134 8.09208 28.5291 9.95939 29.0765Z" fill="#37B7A4"/>
<path d="M29.3932 20.3192C28.84 20.7981 28.2867 21.2086 27.7334 21.6875C27.8026 21.7559 27.8717 21.7559 27.9409 21.7559C28.2175 21.8243 28.425 21.8927 28.7016 21.9612C29.2549 22.1664 29.8773 22.3032 30.4306 22.5085C30.5689 22.5769 30.6381 22.5085 30.7073 22.4401C31.6063 21.6875 32.5054 20.9349 33.4045 20.1823C34.5802 19.2245 35.8251 18.1983 37.0008 17.2405C37.5541 16.7616 38.1765 16.5563 38.8681 16.5563C39.0064 16.5563 39.0756 16.5563 39.2139 16.4879C39.8363 16.0774 40.113 15.4617 39.9747 14.7091C39.698 13.546 38.2457 12.9303 37.2083 13.8197C35.8251 14.9828 34.4419 16.0774 33.0587 17.1721C31.883 18.3351 30.6381 19.3614 29.3932 20.3192Z" fill="#37B7A4"/>
<path d="M34.995 14.9144C35.4099 14.5723 35.7557 14.2987 36.1707 13.9566C36.5165 13.6829 36.5165 13.4777 36.2399 13.1356C36.0324 12.9304 35.8249 12.7251 35.5483 12.5883C34.9258 12.3146 34.3034 12.383 33.7501 12.8619C32.851 13.6145 31.9519 14.3671 31.0529 15.0513C29.1164 16.6248 27.2491 18.1984 25.3126 19.7035C24.9668 19.9772 24.621 20.2508 24.2061 20.5929C24.3444 20.6613 24.3444 20.6613 24.4135 20.6613C25.1743 20.8666 25.9351 21.1403 26.6958 21.3455C26.765 21.3455 26.9033 21.3455 26.9724 21.2771C28.1482 20.3193 29.3239 19.3614 30.4996 18.4036C32.0903 17.309 33.5426 16.1459 34.995 14.9144Z" fill="#37B7A4"/>
<path d="M37.6928 17.6511C37.4161 17.8563 37.1395 18.13 36.8629 18.3352C35.4105 19.4983 34.0273 20.6614 32.575 21.8244C32.16 22.1665 31.745 22.5086 31.3301 22.8507C31.6759 22.9191 31.9525 23.0559 32.2983 23.1243C32.9899 23.3296 33.5432 23.6032 34.0273 24.219C34.3039 24.5611 34.5114 24.5611 34.8572 24.2874C36.3787 23.0559 37.9003 21.8244 39.4218 20.5929C39.6293 20.4561 39.8367 20.2509 39.975 20.0456C40.5283 19.4299 40.5283 18.4721 39.975 17.7879C39.3526 17.2406 38.3844 17.1722 37.6928 17.6511Z" fill="#37B7A4"/>
<path d="M29.9467 15.1882C30.2233 14.983 30.2233 14.7777 29.9467 14.504C29.6009 14.0935 29.1168 13.9567 28.5635 14.0935C28.1486 14.162 27.8028 14.4356 27.5261 14.6409C26.0046 15.8724 24.4831 17.1723 22.9616 18.4037C22.6849 18.6774 22.3391 18.8826 22.0625 19.1563C22.2008 19.2931 22.27 19.3616 22.4083 19.4984C22.6849 19.7721 22.8924 20.1141 23.3074 20.3194C23.5149 20.3878 23.584 20.3878 23.7915 20.3194C25.1747 19.2247 26.4887 18.0617 27.8719 16.967C28.4944 16.3513 29.2551 15.7355 29.9467 15.1882Z" fill="#37B7A4"/>
<path d="M83.3373 18.5403C84.3747 20.7981 86.7261 22.3716 89.4233 22.3716H100.005C100.973 22.3716 101.734 21.619 101.734 20.5928C101.734 19.5666 100.973 18.814 100.005 18.814H89.4233C88.8701 18.814 88.3859 18.6772 87.971 18.4719C86.9336 17.9246 86.242 16.8984 86.242 15.6669C86.242 15.5985 86.242 15.53 86.242 15.4616H100.489C101.042 14.5722 101.457 13.546 101.595 12.4513C101.595 12.3145 101.595 12.1093 101.595 11.9724C101.595 11.904 101.595 11.8356 101.595 11.7672C101.595 10.7409 101.388 9.78313 100.973 8.96214C99.9356 6.70442 97.5842 5.13086 94.887 5.13086H85.2046C84.2364 5.13086 83.4064 5.88343 83.4064 6.90967C83.4064 7.9359 84.1672 8.68848 85.2046 8.68848H94.887C95.4402 8.68848 95.9244 8.82531 96.3393 9.03055C97.3767 9.57788 98.0683 10.6041 98.0683 11.8356C98.0683 11.904 98.0683 11.9724 98.0683 12.0408H92.6739H83.8214C83.199 12.9303 82.8532 13.9565 82.7148 15.0511C82.7148 15.188 82.7148 15.3932 82.7148 15.53C82.7148 15.5985 82.7148 15.6669 82.7148 15.7353C82.7148 16.6931 82.9223 17.6509 83.3373 18.5403Z" fill="white"/>
<path d="M110.102 22.3716C111.07 22.3716 111.9 21.619 111.9 20.5928V11.8355C111.9 10.0567 113.352 8.68842 115.081 8.68842C116.879 8.68842 118.263 10.1252 118.263 11.8355V20.5928C118.263 21.5506 119.023 22.3716 120.061 22.3716C121.098 22.3716 121.859 21.619 121.859 20.5928V11.8355C121.859 8.1411 118.816 5.19922 115.15 5.19922C111.485 5.19922 108.442 8.20951 108.442 11.8355V20.5928C108.304 21.619 109.133 22.3716 110.102 22.3716Z" fill="white"/>
<path d="M132.925 23.9451H116.81V18.8824C116.81 17.9245 116.05 17.1035 115.012 17.1035C114.044 17.1035 113.214 17.8561 113.214 18.8824V23.9451H71.1649V18.2666C74.0005 17.514 76.1445 14.9142 76.1445 11.8355C76.1445 8.14109 73.1014 5.19922 69.436 5.19922C65.7013 5.19922 62.7275 8.20951 62.7275 11.8355C62.7275 14.9142 64.8023 17.514 67.707 18.2666V23.9451H54.9124C53.9442 23.9451 53.1143 24.6977 53.1143 25.7239C53.1143 26.7502 53.875 27.5027 54.9124 27.5027H83.4754C82.9913 28.4606 82.6455 29.4868 82.6455 30.6499C82.6455 34.3443 85.6885 37.2862 89.354 37.2862H99.9354C100.904 37.2862 101.734 36.5336 101.734 35.5074C101.734 34.4811 100.973 33.7286 99.9354 33.7286H89.354C87.5558 33.7286 86.1726 32.2918 86.1726 30.5814C86.1726 28.8711 87.5558 27.5027 89.2156 27.4343H109.064C108.58 28.3921 108.235 29.4184 108.235 30.5814C108.235 34.2759 111.278 37.2178 114.943 37.2178H119.923C120.891 37.2178 121.721 36.4652 121.721 35.439C121.721 34.4127 120.96 33.6602 119.923 33.6602H114.943C113.145 33.6602 111.762 32.2234 111.762 30.513C111.762 28.8026 113.145 27.4343 114.805 27.3659H132.786C133.755 27.3659 134.584 26.6133 134.584 25.5871C134.723 24.7661 133.893 23.9451 132.925 23.9451ZM66.3238 11.8355C66.3238 10.0567 67.7761 8.68842 69.5051 8.68842C71.3033 8.68842 72.6865 10.1251 72.6865 11.8355C72.6865 13.5459 71.2341 14.9827 69.5051 14.9827C67.7761 15.0511 66.3238 13.6144 66.3238 11.8355Z" fill="white"/>
</svg>
