<svg width="71" height="71" viewBox="0 0 71 71" fill="none" xmlns="http://www.w3.org/2000/svg">
<g clip-path="url(#clip0_1987_12305)">
<path d="M72.8677 -0.622559H-1.86914V74.1143H72.8677V-0.622559Z" fill="#6DA6C4"/>
<path d="M44.2445 53.1131C44.2445 56.1026 47.3834 56.9994 49.0276 57.4478C54.1845 58.9426 64.4234 61.8573 64.4234 61.8573C66.5908 62.6794 68.235 64.4731 69.2066 66.79V74.1142H1.79395V66.79C2.69079 64.4731 4.40973 62.6794 6.5771 61.8573C6.5771 61.8573 16.816 58.9426 21.9729 57.4478C23.6171 56.9994 26.756 56.1026 26.756 53.1131C26.756 50.1236 26.756 44.9668 26.756 44.9668H44.3192C44.2445 44.9668 44.2445 50.1236 44.2445 53.1131Z" fill="#E6C19C"/>
<mask id="mask0_1987_12305" style="mask-type:luminance" maskUnits="userSpaceOnUse" x="-2" y="44" width="75" height="31">
<path d="M45.2141 53.1126C45.2141 56.1021 48.7267 56.9989 50.5204 57.4474C56.2004 58.9421 67.5604 61.8568 67.5604 61.8568C69.952 62.6789 71.8204 64.4726 72.8667 66.7895V74.1137H-1.87012V66.7895C-0.898538 64.4726 1.04462 62.6789 3.4362 61.8568C3.4362 61.8568 14.7962 58.9421 20.4762 57.4474C22.2699 56.9989 25.7825 56.1021 25.7825 53.1126C25.7825 50.1232 25.7825 44.9663 25.7825 44.9663H45.2141C45.2141 44.9663 45.2141 50.1232 45.2141 53.1126Z" fill="white"/>
</mask>
<g mask="url(#mask0_1987_12305)">
<path d="M0.671387 42.7242H70.9987V75.6084H0.671387V42.7242ZM35.8724 67.0137C44.3177 67.0137 50.4461 55.9526 50.4461 55.9526C50.4461 55.9526 38.563 31.4389 35.8724 43.4716C29.8935 35.9979 21.224 55.9526 21.224 55.9526C21.224 55.9526 27.3524 67.0137 35.8724 67.0137Z" fill="#E7A145"/>
</g>
<mask id="mask1_1987_12305" style="mask-type:luminance" maskUnits="userSpaceOnUse" x="-2" y="44" width="75" height="31">
<path d="M45.2141 53.1126C45.2141 56.1021 48.7267 56.9989 50.5204 57.4474C56.2004 58.9421 67.5604 61.8568 67.5604 61.8568C69.952 62.6789 71.8204 64.4726 72.8667 66.7895V74.1137H-1.87012V66.7895C-0.898538 64.4726 1.04462 62.6789 3.4362 61.8568C3.4362 61.8568 14.7962 58.9421 20.4762 57.4474C22.2699 56.9989 25.7825 56.1021 25.7825 53.1126C25.7825 50.1232 25.7825 44.9663 25.7825 44.9663H45.2141C45.2141 44.9663 45.2141 50.1232 45.2141 53.1126Z" fill="white"/>
</mask>
<g mask="url(#mask1_1987_12305)">
<path d="M35.6485 7.59814C35.7233 7.59814 35.7233 7.59814 35.798 7.59814C37.9654 7.59814 41.1791 7.74762 43.2717 9.09288C45.4391 10.5129 48.0548 13.2781 48.8769 18.136C50.4464 28.375 47.4569 44.5929 44.6917 49.8245C42.0759 54.8318 38.2643 56.7003 35.798 56.8497H35.7233C35.6485 56.8497 35.6485 56.8497 35.5738 56.8497C35.4991 56.8497 35.4991 56.8497 35.4243 56.8497H35.3496C32.8833 56.7003 29.0717 54.8318 26.4559 49.8245C23.6906 44.5929 20.7012 28.375 22.3454 18.136C23.1675 13.2781 25.7833 10.5129 27.9506 9.09288C30.0433 7.74762 33.2569 7.59814 35.4243 7.59814C35.5738 7.59814 35.5738 7.59814 35.6485 7.59814Z" fill="#CDA985"/>
</g>
<path d="M36.2465 14.1006C50.5212 14.1006 49.8486 21.5743 49.9233 22.4711C50.0728 24.4143 51.2686 26.5816 51.1191 28.6743C50.5959 36.2974 47.5317 45.4901 45.2896 48.7785C42.3002 53.188 37.7412 53.9353 35.7233 53.9353C33.7054 53.9353 28.9223 53.188 25.9328 48.7785C23.0928 44.5932 19.5054 31.4395 20.3275 22.4711C20.3275 21.5743 21.9717 14.1006 36.2465 14.1006Z" fill="#F2CEA5"/>
<path d="M32.0618 45.7144C31.9124 45.7144 31.6882 45.9386 31.7629 46.088C32.5103 47.2091 33.706 47.807 35.3503 47.9565C37.0692 48.0312 38.8629 47.2838 39.685 46.088C39.7597 45.9386 39.685 45.7144 39.5355 45.7144H32.0618Z" fill="#A3705F"/>
<path d="M38.1903 31.2902L38.1156 31.2154C37.7419 30.9912 37.7419 30.4681 38.0408 30.1691C39.1619 29.1228 40.8061 28.5249 42.7493 28.5249H42.824C44.3935 28.5249 45.5145 28.8238 46.1124 29.1228C46.5608 29.2723 46.7103 29.8702 46.3366 30.2438L46.2619 30.3186C46.0377 30.5428 45.7387 30.6175 45.4398 30.4681C44.9914 30.2438 44.0198 29.9449 42.6745 29.9449C41.7029 30.0196 40.1335 30.2439 39.0124 31.2902C38.7882 31.5144 38.4145 31.5144 38.1903 31.2902Z" fill="#BB8660"/>
<path d="M32.883 30.5426C32.6588 30.6921 32.2851 30.6921 32.0609 30.4679C30.9399 29.4216 29.4451 29.1226 28.2493 29.1973C26.8293 29.1973 25.9325 29.4963 25.4841 29.7205C25.1851 29.87 24.8862 29.7952 24.7367 29.571L24.662 29.4216C24.363 29.1226 24.5125 28.5994 24.8862 28.3752C25.5588 28.0763 26.6051 27.7773 28.2493 27.7773C30.1925 27.7773 31.9114 28.3005 33.1072 29.4216C33.3314 29.7952 33.2567 30.3184 32.883 30.5426Z" fill="#CC9872"/>
<path d="M36.3958 41.3792C35.3495 39.436 35.0506 36.5213 35.6485 33.3823L37.1432 33.6813C36.6201 36.4465 36.7695 39.0623 37.7411 40.6318C37.8906 40.9307 37.8158 41.3044 37.5916 41.5286L37.5169 41.6034C37.0685 41.8276 36.6201 41.7529 36.3958 41.3792Z" fill="#BB8660"/>
<path d="M24.3638 34.1299C24.5132 34.0552 24.8122 33.9057 25.1111 33.7562C26.0827 33.3826 27.2785 33.0836 28.848 33.0836C30.4174 33.0836 31.688 33.3078 32.5848 33.7562C32.9585 33.9057 33.1827 34.0552 33.3322 34.2047C33.3322 34.8773 33.2574 35.6994 32.9585 36.5215C32.3606 38.091 31.0901 38.9878 28.848 38.9878C26.6059 38.9878 25.3353 38.091 24.7374 36.5215C24.4385 35.6994 24.3638 34.8026 24.3638 34.1299ZM34.9017 34.5036H36.3217C36.7701 34.5036 37.069 34.2047 37.069 33.7562C37.069 33.3078 36.7701 33.0089 36.3217 33.0089H34.0796L34.6027 33.2331C34.3785 33.0089 33.9301 32.7099 33.1827 32.3362C32.0617 31.8131 30.5669 31.5889 28.848 31.5889C27.129 31.5889 25.6343 31.8878 24.588 32.3362C23.8406 32.6352 23.3922 32.9341 23.168 33.2331L23.6911 33.0089H21.449C21.0006 33.0089 20.7017 33.3078 20.7017 33.7562C20.7017 34.2047 21.0006 34.5036 21.449 34.5036H22.869C22.869 35.3257 23.0185 36.1478 23.3922 36.9699C24.2143 39.0626 26.008 40.4078 28.9227 40.4078C31.7627 40.4078 33.6311 39.1373 34.4532 36.9699C34.7522 36.1478 34.9017 35.251 34.9017 34.5036ZM37.8164 34.1299C37.9659 34.0552 38.2648 33.9057 38.5638 33.7562C39.5353 33.3826 40.7311 33.0836 42.3006 33.0836C43.8701 33.0836 45.1406 33.3078 46.0374 33.7562C46.4111 33.9057 46.6353 34.0552 46.7848 34.2047C46.7848 34.8773 46.7101 35.6994 46.4111 36.5215C45.8132 38.091 44.5427 38.9878 42.3006 38.9878C40.0585 38.9878 38.788 38.091 38.1901 36.5215C37.8911 35.6994 37.8164 34.8026 37.8164 34.1299ZM49.7743 34.5036C50.2227 34.5036 50.5217 34.2047 50.5217 33.7562C50.5217 33.3078 50.2227 33.0089 49.7743 33.0089H47.5322L48.0553 33.2331C47.8311 33.0089 47.3827 32.7099 46.6353 32.3362C45.5143 31.8131 44.0196 31.5889 42.3006 31.5889C40.5817 31.5889 39.0869 31.8878 38.0406 32.3362C37.2932 32.6352 36.8448 32.9341 36.6206 33.2331L37.1438 33.0089H34.9017C34.4532 33.0089 34.1543 33.3078 34.1543 33.7562C34.1543 34.2047 34.4532 34.5036 34.9017 34.5036H36.3217C36.3217 35.3257 36.4711 36.1478 36.8448 36.9699C37.6669 39.0626 39.4606 40.4078 42.3753 40.4078C45.2153 40.4078 47.0838 39.1373 47.9059 36.9699C48.2796 36.1478 48.3543 35.251 48.429 34.4289L49.7743 34.5036Z" fill="#B7B7B7"/>
<path d="M33.2574 21.7989C37.385 21.7989 40.7311 18.4528 40.7311 14.3252C40.7311 10.1976 37.385 6.85156 33.2574 6.85156C29.1298 6.85156 25.7837 10.1976 25.7837 14.3252C25.7837 18.4528 29.1298 21.7989 33.2574 21.7989Z" fill="#DDE4EA"/>
<path d="M20.7015 32.7101C20.7015 32.7101 13.6762 18.5101 29.8194 12.307C45.9625 6.1038 49.5499 17.5385 50.5215 20.528C51.6425 24.2649 50.8952 30.468 50.8952 30.468C50.8952 30.468 46.8594 18.8091 40.0583 18.8091C38.5636 21.2006 36.172 24.0406 28.2499 24.0406C20.3278 24.0406 20.7015 32.7101 20.7015 32.7101Z" fill="white"/>
<path d="M35.8745 66.9391C42.0776 66.9391 46.9355 61.1097 49.1776 57.9707C36.6219 64.9212 26.7566 59.5402 22.4966 57.9707C24.8134 61.1844 29.9703 66.9391 35.8745 66.9391Z" fill="white"/>
<path d="M26.8306 35.3252C26.8306 35.3252 28.5495 33.3821 31.6137 35.0263" stroke="#4C4C4C" stroke-width="0.757895" stroke-miterlimit="10" stroke-linecap="round"/>
<path d="M44.6928 35.3252C44.6928 35.3252 42.9739 33.3821 39.9097 35.0263" stroke="#4C4C4C" stroke-width="0.757895" stroke-miterlimit="10" stroke-linecap="round"/>
</g>
<defs>
<clipPath id="clip0_1987_12305">
<rect width="71" height="71" fill="white"/>
</clipPath>
</defs>
</svg>
